<svg xmlns="http://www.w3.org/2000/svg" xmlns:xlink="http://www.w3.org/1999/xlink" width="755" zoomAndPan="magnify" viewBox="0 0 567 567.000005" height="755" preserveAspectRatio="xMidYMid meet" version="1.0"><defs><clipPath id="0723663795"><path d="M 125.65625 547 L 448.453125 547 L 448.453125 565.914062 L 125.65625 565.914062 Z M 125.65625 547 " clip-rule="nonzero"/></clipPath><clipPath id="74ae7130a8"><path d="M 464 346.417969 L 516.734375 346.417969 L 516.734375 521.464844 L 464 521.464844 Z M 464 346.417969 " clip-rule="nonzero"/></clipPath></defs><path fill="#e9e6e9" d="M 287.078125 18.894531 C 345.808594 18.894531 393.585938 66.675781 393.585938 125.402344 C 393.585938 184.132812 345.808594 231.914062 287.078125 231.914062 C 228.351562 231.914062 180.570312 184.132812 180.570312 125.402344 C 180.570312 66.675781 228.351562 18.894531 287.078125 18.894531 Z M 287.078125 250.808594 C 356.226562 250.808594 412.480469 194.550781 412.480469 125.402344 C 412.480469 56.257812 356.226562 0 287.078125 0 C 217.929688 0 161.675781 56.257812 161.675781 125.402344 C 161.675781 194.550781 217.929688 250.808594 287.078125 250.808594 " fill-opacity="1" fill-rule="nonzero"/><path fill="#e9e6e9" d="M 165.554688 283.617188 C 167.535156 283.617188 169.535156 282.992188 171.238281 281.707031 C 179.113281 275.765625 187.589844 270.417969 196.492188 265.773438 C 223.648438 277.457031 254.859375 283.617188 287.078125 283.617188 C 319.300781 283.617188 350.507812 277.457031 377.664062 265.773438 C 386.566406 270.417969 395.042969 275.765625 402.917969 281.707031 C 407.082031 284.847656 413.003906 284.019531 416.148438 279.855469 C 419.289062 275.6875 418.460938 269.765625 414.296875 266.621094 C 404.332031 259.105469 393.5 252.445312 382.101562 246.835938 C 379.554688 245.582031 376.574219 245.542969 373.992188 246.726562 C 348.328125 258.496094 318.273438 264.71875 287.078125 264.71875 C 255.882812 264.71875 225.828125 258.496094 200.160156 246.730469 C 197.582031 245.542969 194.601562 245.585938 192.050781 246.839844 C 180.65625 252.449219 169.824219 259.105469 159.859375 266.625 C 155.691406 269.765625 154.863281 275.691406 158.003906 279.859375 C 159.863281 282.320312 162.691406 283.617188 165.554688 283.617188 " fill-opacity="1" fill-rule="nonzero"/><path fill="#e9e6e9" d="M 430.847656 512.472656 L 143.308594 512.472656 L 136.46875 320.210938 L 437.6875 320.210938 Z M 447.476562 301.316406 L 126.679688 301.316406 C 124.117188 301.316406 121.664062 302.355469 119.882812 304.203125 C 118.101562 306.046875 117.148438 308.535156 117.238281 311.097656 L 124.75 522.257812 C 124.933594 527.339844 129.105469 531.367188 134.191406 531.367188 L 439.964844 531.367188 C 445.050781 531.367188 449.226562 527.339844 449.40625 522.257812 L 456.917969 311.097656 C 457.011719 308.535156 456.054688 306.046875 454.273438 304.203125 C 452.492188 302.355469 450.039062 301.316406 447.476562 301.316406 " fill-opacity="1" fill-rule="nonzero"/><g clip-path="url(#0723663795)"><path fill="#e9e6e9" d="M 438.949219 547.019531 L 135.207031 547.019531 C 129.992188 547.019531 125.761719 551.25 125.761719 556.464844 C 125.761719 561.6875 129.992188 565.914062 135.207031 565.914062 L 438.949219 565.914062 C 444.167969 565.914062 448.398438 561.6875 448.398438 556.464844 C 448.398438 551.25 444.167969 547.019531 438.949219 547.019531 " fill-opacity="1" fill-rule="nonzero"/></g><g clip-path="url(#74ae7130a8)"><path fill="#e9e6e9" d="M 481.113281 350.328125 C 477.992188 346.148438 472.082031 345.292969 467.898438 348.410156 C 463.71875 351.527344 462.855469 357.445312 465.96875 361.628906 C 466.351562 362.144531 504.109375 413.507812 496.929688 459.316406 C 494.101562 477.390625 484.382812 492.464844 468.054688 504.125 C 463.808594 507.15625 462.824219 513.058594 465.855469 517.304688 C 467.699219 519.886719 470.605469 521.261719 473.550781 521.261719 C 475.453125 521.261719 477.371094 520.691406 479.035156 519.503906 C 499.671875 504.765625 511.980469 485.476562 515.613281 462.167969 C 523.980469 408.460938 482.867188 352.671875 481.113281 350.328125 " fill-opacity="1" fill-rule="nonzero"/></g><path fill="#e9e6e9" d="M 106.101562 504.125 C 89.773438 492.464844 80.058594 477.390625 77.222656 459.320312 C 70.046875 413.507812 107.804688 362.144531 108.1875 361.628906 C 111.304688 357.449219 110.445312 351.53125 106.269531 348.414062 C 102.085938 345.289062 96.167969 346.144531 93.042969 350.328125 C 91.289062 352.671875 50.175781 408.460938 58.546875 462.167969 C 62.175781 485.476562 74.484375 504.765625 95.125 519.503906 C 96.789062 520.691406 98.707031 521.261719 100.605469 521.261719 C 103.554688 521.261719 106.457031 519.886719 108.300781 517.304688 C 111.332031 513.058594 110.351562 507.15625 106.101562 504.125 " fill-opacity="1" fill-rule="nonzero"/><path fill="#e9e6e9" d="M 193.683594 430.996094 L 242.648438 463.828125 C 244.261719 464.90625 246.089844 465.425781 247.898438 465.425781 C 250.945312 465.425781 253.933594 463.957031 255.753906 461.238281 C 258.660156 456.90625 257.503906 451.039062 253.167969 448.128906 L 215.910156 423.148438 L 253.167969 398.167969 C 257.503906 395.261719 258.660156 389.394531 255.753906 385.0625 C 252.847656 380.726562 246.980469 379.570312 242.648438 382.472656 L 193.683594 415.300781 C 191.066406 417.058594 189.496094 420 189.496094 423.148438 C 189.496094 426.300781 191.066406 429.242188 193.683594 430.996094 " fill-opacity="1" fill-rule="nonzero"/><path fill="#e9e6e9" d="M 318.402344 461.238281 C 320.226562 463.957031 323.214844 465.425781 326.257812 465.425781 C 328.066406 465.425781 329.894531 464.90625 331.507812 463.828125 L 380.476562 430.996094 C 383.09375 429.242188 384.660156 426.300781 384.660156 423.148438 C 384.660156 420 383.09375 417.058594 380.476562 415.300781 L 331.507812 382.472656 C 327.175781 379.570312 321.308594 380.726562 318.402344 385.0625 C 315.496094 389.394531 316.652344 395.261719 320.988281 398.167969 L 358.25 423.148438 L 320.988281 448.128906 C 316.652344 451.039062 315.496094 456.90625 318.402344 461.238281 " fill-opacity="1" fill-rule="nonzero"/><path fill="#e9e6e9" d="M 275.359375 479.40625 C 276.007812 479.539062 276.65625 479.605469 277.296875 479.605469 C 281.675781 479.605469 285.605469 476.542969 286.535156 472.082031 L 306.121094 378.074219 C 307.1875 372.960938 303.910156 367.960938 298.800781 366.894531 C 293.695312 365.832031 288.6875 369.109375 287.625 374.21875 L 268.035156 468.226562 C 266.972656 473.335938 270.25 478.339844 275.359375 479.40625 " fill-opacity="1" fill-rule="nonzero"/></svg>