<svg xmlns="http://www.w3.org/2000/svg" xmlns:xlink="http://www.w3.org/1999/xlink" width="755" zoomAndPan="magnify" viewBox="0 0 567 198.749996" height="264" preserveAspectRatio="xMidYMid meet" version="1.0"><defs><g/></defs><g fill="#ffffff" fill-opacity="1"><g transform="translate(11.361479, 148.297939)"><g><path d="M 14.21875 0 L 14.21875 -65.140625 L 2.171875 -65.140625 L 2.171875 -81.015625 L 14.21875 -81.015625 L 14.21875 -87.90625 C 14.21875 -96.988281 16.828125 -104.035156 22.046875 -109.046875 C 27.265625 -114.066406 34.566406 -116.578125 43.953125 -116.578125 C 46.941406 -116.578125 50.609375 -116.078125 54.953125 -115.078125 L 54.734375 -98.3125 C 52.929688 -98.757812 50.734375 -98.984375 48.140625 -98.984375 C 40.003906 -98.984375 35.9375 -95.164062 35.9375 -87.53125 L 35.9375 -81.015625 L 52.03125 -81.015625 L 52.03125 -65.140625 L 35.9375 -65.140625 L 35.9375 0 Z M 14.21875 0 "/></g></g></g><g fill="#ffffff" fill-opacity="1"><g transform="translate(66.31631, 148.297939)"><g><path d="M 5.171875 -41.109375 C 5.171875 -53.535156 8.125 -63.539062 14.03125 -71.125 C 19.945312 -78.71875 27.925781 -82.515625 37.96875 -82.515625 C 46.851562 -82.515625 53.765625 -79.46875 58.703125 -73.375 L 59.59375 -81.015625 L 79.21875 -81.015625 L 79.21875 -2.703125 C 79.21875 4.390625 77.609375 10.554688 74.390625 15.796875 C 71.171875 21.035156 66.640625 25.023438 60.796875 27.765625 C 54.953125 30.515625 48.113281 31.890625 40.28125 31.890625 C 34.34375 31.890625 28.550781 30.703125 22.90625 28.328125 C 17.269531 25.960938 13.003906 22.910156 10.109375 19.171875 L 19.6875 5.984375 C 25.082031 12.023438 31.625 15.046875 39.3125 15.046875 C 45.050781 15.046875 49.515625 13.507812 52.703125 10.4375 C 55.898438 7.375 57.5 3.019531 57.5 -2.625 L 57.5 -6.96875 C 52.507812 -1.320312 45.945312 1.5 37.8125 1.5 C 28.082031 1.5 20.207031 -2.304688 14.1875 -9.921875 C 8.175781 -17.535156 5.171875 -27.628906 5.171875 -40.203125 Z M 26.8125 -39.53125 C 26.8125 -32.195312 28.28125 -26.441406 31.21875 -22.265625 C 34.164062 -18.097656 38.210938 -16.015625 43.359375 -16.015625 C 49.941406 -16.015625 54.65625 -18.488281 57.5 -23.4375 L 57.5 -57.5 C 54.601562 -62.445312 49.9375 -64.921875 43.5 -64.921875 C 38.3125 -64.921875 34.234375 -62.796875 31.265625 -58.546875 C 28.296875 -54.304688 26.8125 -47.96875 26.8125 -39.53125 Z M 26.8125 -39.53125 "/></g></g></g><g fill="#211d1d" fill-opacity="1"><g transform="translate(153.846307, 148.297939)"><g><path d="M 9.734375 0 L 9.734375 -109.015625 L 43.28125 -109.015625 C 52.863281 -109.015625 61.4375 -106.851562 69 -102.53125 C 76.5625 -98.21875 82.460938 -92.078125 86.703125 -84.109375 C 90.941406 -76.148438 93.0625 -67.109375 93.0625 -56.984375 L 93.0625 -51.96875 C 93.0625 -41.832031 90.976562 -32.820312 86.8125 -24.9375 C 82.644531 -17.050781 76.765625 -10.9375 69.171875 -6.59375 C 61.585938 -2.25 53.03125 -0.0507812 43.5 0 Z M 32.203125 -90.828125 L 32.203125 -18.046875 L 43.046875 -18.046875 C 51.835938 -18.046875 58.550781 -20.914062 63.1875 -26.65625 C 67.832031 -32.394531 70.207031 -40.609375 70.3125 -51.296875 L 70.3125 -57.046875 C 70.3125 -68.128906 68.015625 -76.53125 63.421875 -82.25 C 58.828125 -87.96875 52.113281 -90.828125 43.28125 -90.828125 Z M 32.203125 -90.828125 "/></g></g></g><g fill="#211d1d" fill-opacity="1"><g transform="translate(253.498738, 148.297939)"><g><path d="M 45.59375 1.5 C 33.71875 1.5 24.046875 -2.140625 16.578125 -9.421875 C 9.117188 -16.710938 5.390625 -26.425781 5.390625 -38.5625 L 5.390625 -40.65625 C 5.390625 -48.789062 6.960938 -56.066406 10.109375 -62.484375 C 13.253906 -68.898438 17.707031 -73.84375 23.46875 -77.3125 C 29.238281 -80.78125 35.816406 -82.515625 43.203125 -82.515625 C 54.285156 -82.515625 63.007812 -79.019531 69.375 -72.03125 C 75.738281 -65.039062 78.921875 -55.128906 78.921875 -42.296875 L 78.921875 -33.46875 L 27.328125 -33.46875 C 28.023438 -28.175781 30.132812 -23.929688 33.65625 -20.734375 C 37.175781 -17.546875 41.628906 -15.953125 47.015625 -15.953125 C 55.359375 -15.953125 61.875 -18.972656 66.5625 -25.015625 L 77.203125 -13.109375 C 73.953125 -8.515625 69.554688 -4.929688 64.015625 -2.359375 C 58.472656 0.210938 52.332031 1.5 45.59375 1.5 Z M 43.125 -64.984375 C 38.832031 -64.984375 35.347656 -63.535156 32.671875 -60.640625 C 30.003906 -57.753906 28.296875 -53.613281 27.546875 -48.21875 L 57.65625 -48.21875 L 57.65625 -49.9375 C 57.550781 -54.726562 56.25 -58.429688 53.75 -61.046875 C 51.257812 -63.671875 47.71875 -64.984375 43.125 -64.984375 Z M 43.125 -64.984375 "/></g></g></g><g fill="#211d1d" fill-opacity="1"><g transform="translate(336.380212, 148.297939)"><g><path d="M 38.640625 -26.4375 L 53.6875 -81.015625 L 76.296875 -81.015625 L 48.96875 0 L 28.296875 0 L 0.96875 -81.015625 L 23.578125 -81.015625 Z M 38.640625 -26.4375 "/></g></g></g><g fill="#211d1d" fill-opacity="1"><g transform="translate(411.902846, 143.635687)"><g><path d="M 9.28125 -44.328125 C 9.28125 -55.753906 10.800781 -66.632812 13.84375 -76.96875 C 16.894531 -87.300781 21.390625 -96.445312 27.328125 -104.40625 C 33.265625 -112.375 39.703125 -117.90625 46.640625 -121 L 50.84375 -109.3125 C 43.550781 -103.925781 37.859375 -95.59375 33.765625 -84.3125 C 29.671875 -73.03125 27.625 -59.851562 27.625 -44.78125 L 27.625 -42.453125 C 27.625 -27.328125 29.644531 -14.097656 33.6875 -2.765625 C 37.738281 8.554688 43.457031 17.015625 50.84375 22.609375 L 46.640625 34.0625 C 39.859375 31.019531 33.535156 25.640625 27.671875 17.921875 C 21.804688 10.210938 17.320312 1.316406 14.21875 -8.765625 C 11.125 -18.847656 9.476562 -29.378906 9.28125 -40.359375 Z M 9.28125 -44.328125 "/></g></g></g><g fill="#211d1d" fill-opacity="1"><g transform="translate(465.732595, 143.635687)"><g/></g></g><g fill="#211d1d" fill-opacity="1"><g transform="translate(503.915031, 143.635687)"><g><path d="M 45.59375 -42.609375 C 45.59375 -31.328125 43.96875 -20.46875 40.71875 -10.03125 C 37.476562 0.394531 32.8125 9.601562 26.71875 17.59375 C 20.632812 25.582031 14.125 31.070312 7.1875 34.0625 L 3 22.609375 C 10.082031 17.265625 15.671875 9.03125 19.765625 -2.09375 C 23.859375 -13.226562 25.976562 -26.03125 26.125 -40.5 L 26.125 -44.46875 C 26.125 -59.394531 24.085938 -72.546875 20.015625 -83.921875 C 15.953125 -95.304688 10.28125 -103.847656 3 -109.546875 L 7.1875 -121 C 13.976562 -118.050781 20.378906 -112.707031 26.390625 -104.96875 C 32.410156 -97.238281 37.078125 -88.226562 40.390625 -77.9375 C 43.710938 -67.65625 45.445312 -57 45.59375 -45.96875 Z M 45.59375 -42.609375 "/></g></g></g></svg>