<svg xmlns="http://www.w3.org/2000/svg" xmlns:xlink="http://www.w3.org/1999/xlink" width="755" zoomAndPan="magnify" viewBox="0 0 567 567.000005" height="755" preserveAspectRatio="xMidYMid meet" version="1.0"><defs><g/></defs><g fill="#4a87ce" fill-opacity="1"><g transform="translate(43.395915, 425.936607)"><g><path d="M 48.90625 0 L 48.90625 -223.921875 L 7.46875 -223.921875 L 7.46875 -278.484375 L 48.90625 -278.484375 L 48.90625 -302.171875 C 48.90625 -333.398438 57.867188 -357.632812 75.796875 -374.875 C 93.734375 -392.125 118.828125 -400.75 151.078125 -400.75 C 161.378906 -400.75 173.992188 -399.03125 188.921875 -395.59375 L 188.15625 -337.953125 C 181.96875 -339.492188 174.414062 -340.265625 165.5 -340.265625 C 137.53125 -340.265625 123.546875 -327.140625 123.546875 -300.890625 L 123.546875 -278.484375 L 178.875 -278.484375 L 178.875 -223.921875 L 123.546875 -223.921875 L 123.546875 0 Z M 48.90625 0 "/></g></g></g><g fill="#4a87ce" fill-opacity="1"><g transform="translate(232.303237, 425.936607)"><g><path d="M 17.765625 -141.296875 C 17.765625 -184.023438 27.929688 -218.429688 48.265625 -244.515625 C 68.597656 -270.597656 96.007812 -283.640625 130.5 -283.640625 C 161.039062 -283.640625 184.804688 -273.171875 201.796875 -252.234375 L 204.875 -278.484375 L 272.3125 -278.484375 L 272.3125 -9.265625 C 272.3125 15.097656 266.773438 36.285156 255.703125 54.296875 C 244.640625 72.316406 229.066406 86.046875 208.984375 95.484375 C 188.910156 104.921875 165.40625 109.640625 138.46875 109.640625 C 118.050781 109.640625 98.144531 105.5625 78.75 97.40625 C 59.363281 89.257812 44.695312 78.753906 34.75 65.890625 L 67.6875 20.59375 C 86.21875 41.351562 108.695312 51.734375 135.125 51.734375 C 154.863281 51.734375 170.222656 46.457031 181.203125 35.90625 C 192.179688 25.351562 197.671875 10.378906 197.671875 -9.015625 L 197.671875 -23.9375 C 180.515625 -4.550781 157.953125 5.140625 129.984375 5.140625 C 96.523438 5.140625 69.457031 -7.941406 48.78125 -34.109375 C 28.101562 -60.273438 17.765625 -94.976562 17.765625 -138.21875 Z M 92.140625 -135.90625 C 92.140625 -110.675781 97.203125 -90.894531 107.328125 -76.5625 C 117.453125 -62.238281 131.351562 -55.078125 149.03125 -55.078125 C 171.675781 -55.078125 187.890625 -63.570312 197.671875 -80.5625 L 197.671875 -197.671875 C 187.722656 -214.660156 171.679688 -223.15625 149.546875 -223.15625 C 131.691406 -223.15625 117.660156 -215.859375 107.453125 -201.265625 C 97.242188 -186.679688 92.140625 -164.894531 92.140625 -135.90625 Z M 92.140625 -135.90625 "/></g></g></g></svg>