<svg xmlns="http://www.w3.org/2000/svg" xmlns:xlink="http://www.w3.org/1999/xlink" width="755" zoomAndPan="magnify" viewBox="0 0 567 567.000005" height="755" preserveAspectRatio="xMidYMid meet" version="1.0"><defs><clipPath id="4719ea1fc5"><path d="M 32 35.167969 L 540.726562 35.167969 L 540.726562 544 L 32 544 Z M 32 35.167969 " clip-rule="nonzero"/></clipPath><clipPath id="dc4fc900ea"><path d="M 32 35.167969 L 288 35.167969 L 288 544 L 32 544 Z M 32 35.167969 " clip-rule="nonzero"/></clipPath></defs><g clip-path="url(#4719ea1fc5)"><path fill="#ffc44d" d="M 50.570312 33.984375 C 45.476562 33.984375 40.625 36.171875 37.253906 39.992188 C 33.882812 43.808594 32.316406 48.890625 32.945312 53.945312 L 80.304688 432.8125 C 81.042969 438.707031 84.671875 443.839844 89.984375 446.496094 L 279.417969 541.210938 C 284.417969 543.710938 290.304688 543.710938 295.300781 541.210938 L 484.734375 446.496094 C 490.046875 443.839844 493.679688 438.707031 494.414062 432.8125 L 541.773438 53.945312 C 542.40625 48.890625 540.835938 43.808594 537.46875 39.992188 C 534.09375 36.171875 529.246094 33.984375 524.152344 33.984375 Z M 50.570312 33.984375 " fill-opacity="1" fill-rule="nonzero"/></g><g clip-path="url(#dc4fc900ea)"><path fill="#e5b045" d="M 287.359375 33.984375 L 287.359375 543.085938 C 284.640625 543.085938 281.917969 542.460938 279.417969 541.210938 L 89.984375 446.496094 C 84.671875 443.839844 81.042969 438.707031 80.304688 432.8125 L 32.945312 53.945312 C 32.316406 48.890625 33.882812 43.808594 37.253906 39.992188 C 40.625 36.171875 45.476562 33.984375 50.570312 33.984375 Z M 287.359375 33.984375 " fill-opacity="1" fill-rule="evenodd"/></g><path fill="#cfd8dc" d="M 251.84375 105.023438 C 261.652344 105.023438 269.601562 112.972656 269.601562 122.78125 L 269.601562 430.609375 C 269.601562 436.941406 266.234375 442.792969 260.757812 445.972656 C 255.28125 449.148438 248.527344 449.171875 243.03125 446.03125 L 160.15625 398.671875 C 151.640625 393.804688 148.683594 382.957031 153.546875 374.441406 C 158.414062 365.925781 169.261719 362.964844 177.777344 367.832031 L 234.082031 400.007812 L 234.082031 122.78125 C 234.082031 112.972656 242.035156 105.023438 251.84375 105.023438 Z M 251.84375 105.023438 " fill-opacity="1" fill-rule="evenodd"/><path fill="#eceff1" d="M 305.125 122.78125 C 305.125 112.972656 313.074219 105.023438 322.882812 105.023438 L 441.28125 105.023438 C 451.085938 105.023438 459.039062 112.972656 459.039062 122.78125 C 459.039062 132.589844 451.085938 140.539062 441.28125 140.539062 L 340.644531 140.539062 L 340.644531 254.554688 L 425.585938 235.679688 C 431.121094 234.449219 436.910156 235.9375 441.167969 239.683594 C 445.425781 243.425781 447.640625 248.976562 447.125 254.625 L 435.285156 384.859375 C 434.730469 390.984375 431.042969 396.386719 425.542969 399.136719 L 330.824219 446.496094 C 322.050781 450.882812 311.386719 447.324219 306.996094 438.550781 C 302.613281 429.78125 306.167969 419.113281 314.941406 414.726562 L 400.808594 371.792969 L 409.550781 275.628906 L 326.738281 294.03125 C 321.476562 295.203125 315.972656 293.921875 311.769531 290.546875 C 307.566406 287.179688 305.125 282.082031 305.125 276.695312 Z M 305.125 122.78125 " fill-opacity="1" fill-rule="evenodd"/></svg>