<svg xmlns="http://www.w3.org/2000/svg" xmlns:xlink="http://www.w3.org/1999/xlink" width="755" zoomAndPan="magnify" viewBox="0 0 567 567.000005" height="755" preserveAspectRatio="xMidYMid meet" version="1.0"><defs><clipPath id="05ce214795"><path d="M 51.917969 24.253906 L 515.351562 24.253906 L 515.351562 541.589844 L 51.917969 541.589844 Z M 51.917969 24.253906 " clip-rule="nonzero"/></clipPath></defs><g clip-path="url(#05ce214795)"><path fill="#0277bd" d="M 515.285156 24.253906 L 51.980469 24.253906 L 92.863281 487.136719 L 283.632812 541.589844 L 474.40625 487.136719 Z M 515.285156 24.253906 " fill-opacity="1" fill-rule="nonzero"/></g><path fill="#039be5" d="M 283.632812 65.097656 L 283.632812 499.386719 L 436.253906 455.824219 L 470.320312 65.097656 Z M 283.632812 65.097656 " fill-opacity="1" fill-rule="nonzero"/><path fill="#ffffff" d="M 407.636719 133.167969 L 283.632812 133.167969 L 283.632812 187.625 L 350.40625 187.625 L 346.316406 242.082031 L 283.632812 242.082031 L 283.632812 296.539062 L 343.589844 296.539062 L 339.503906 357.800781 L 283.632812 376.859375 L 283.632812 434.039062 L 391.285156 398.644531 L 400.824219 242.082031 Z M 407.636719 133.167969 " fill-opacity="1" fill-rule="nonzero"/><path fill="#eeeeee" d="M 283.632812 133.167969 L 283.632812 187.625 L 162.355469 187.625 L 158.269531 133.167969 Z M 220.953125 242.082031 L 223.675781 296.539062 L 283.632812 296.539062 L 283.632812 242.082031 Z M 226.402344 323.765625 L 171.894531 323.765625 L 175.984375 398.644531 L 283.632812 434.039062 L 283.632812 376.859375 L 227.765625 357.800781 Z M 226.402344 323.765625 " fill-opacity="1" fill-rule="nonzero"/></svg>