<svg xmlns="http://www.w3.org/2000/svg" xmlns:xlink="http://www.w3.org/1999/xlink" width="755" zoomAndPan="magnify" viewBox="0 0 567 567.000005" height="755" preserveAspectRatio="xMidYMid meet" version="1.0"><defs><clipPath id="b7231df576"><path d="M 57.09375 26 L 510.042969 26 L 510.042969 540 L 57.09375 540 Z M 57.09375 26 " clip-rule="nonzero"/></clipPath></defs><g clip-path="url(#b7231df576)"><path fill="#e44d26" d="M 98.210938 488.421875 L 56.964844 26.105469 L 510.171875 26.105469 L 468.890625 488.359375 L 283.277344 539.757812 Z M 98.210938 488.421875 " fill-opacity="1" fill-rule="nonzero"/></g><path fill="#f16529" d="M 433.539062 458.917969 L 468.828125 63.910156 L 283.566406 63.910156 L 283.566406 500.476562 Z M 433.539062 458.917969 " fill-opacity="1" fill-rule="nonzero"/><path fill="#ebebeb" d="M 283.375 120.605469 L 141.289062 120.605469 L 156.597656 292.074219 L 283.566406 292.074219 L 283.566406 235.375 L 208.492188 235.375 L 203.304688 177.316406 L 283.566406 177.316406 L 283.566406 120.605469 Z M 283.566406 382.445312 L 283.328125 382.511719 L 220.136719 365.460938 L 216.125 320.242188 L 159.132812 320.242188 L 167.085938 409.269531 L 283.3125 441.375 L 283.566406 441.292969 Z M 283.566406 382.445312 " fill-opacity="1" fill-rule="nonzero"/><path fill="#ffffff" d="M 283.375 292.074219 L 353.246094 292.074219 L 346.820312 365.589844 L 283.535156 382.65625 L 283.535156 441.644531 L 399.855469 409.429688 L 415.4375 235.34375 L 283.566406 235.34375 Z M 424.144531 135.820312 L 425.492188 120.605469 L 283.34375 120.605469 L 283.34375 177.300781 L 420.382812 177.300781 L 421.507812 164.554688 Z M 424.144531 135.820312 " fill-opacity="1" fill-rule="nonzero"/></svg>