<svg xmlns="http://www.w3.org/2000/svg" xmlns:xlink="http://www.w3.org/1999/xlink" width="755" zoomAndPan="magnify" viewBox="0 0 567 567.000005" height="755" preserveAspectRatio="xMidYMid meet" version="1.0"><defs><clipPath id="57e5a3c338"><path d="M 19.789062 32 L 546.859375 32 L 546.859375 502 L 19.789062 502 Z M 19.789062 32 " clip-rule="nonzero"/></clipPath></defs><g clip-path="url(#57e5a3c338)"><path fill="#00d8ff" d="M 452.957031 184.144531 C 447.351562 182.21875 441.695312 180.4375 436 178.796875 C 436.957031 174.882812 437.835938 171.019531 438.621094 167.222656 C 451.457031 104.863281 443.066406 54.628906 414.398438 38.089844 C 386.914062 22.230469 341.964844 38.765625 296.570312 78.296875 C 292.097656 82.199219 287.722656 86.214844 283.453125 90.339844 C 280.59375 87.597656 277.683594 84.910156 274.722656 82.273438 C 227.148438 40.007812 179.460938 22.191406 150.824219 38.777344 C 123.367188 54.683594 115.234375 101.910156 126.792969 161.007812 C 127.941406 166.859375 129.242188 172.683594 130.6875 178.46875 C 123.9375 180.386719 117.421875 182.429688 111.1875 184.605469 C 55.410156 204.066406 19.789062 234.5625 19.789062 266.195312 C 19.789062 298.863281 58.03125 331.632812 116.125 351.503906 C 120.835938 353.109375 125.585938 354.59375 130.371094 355.960938 C 128.816406 362.195312 127.4375 368.46875 126.234375 374.777344 C 115.214844 432.851562 123.820312 478.960938 151.203125 494.765625 C 179.488281 511.085938 226.960938 494.3125 273.1875 453.878906 C 276.933594 450.589844 280.601562 447.210938 284.179688 443.738281 C 288.804688 448.207031 293.554688 452.539062 298.421875 456.742188 C 343.199219 495.296875 387.421875 510.863281 414.78125 495.015625 C 443.039062 478.644531 452.222656 429.113281 440.296875 368.847656 C 439.359375 364.125 438.304688 359.429688 437.140625 354.757812 C 440.472656 353.769531 443.746094 352.753906 446.9375 351.695312 C 507.332031 331.671875 546.628906 299.300781 546.628906 266.195312 C 546.628906 234.445312 509.859375 203.746094 452.957031 184.144531 Z M 439.859375 330.320312 C 436.976562 331.273438 434.023438 332.195312 431.007812 333.089844 C 424.339844 311.96875 415.34375 289.507812 404.332031 266.304688 C 414.839844 243.652344 423.492188 221.480469 429.972656 200.496094 C 435.363281 202.054688 440.589844 203.703125 445.632812 205.4375 C 494.386719 222.230469 524.125 247.0625 524.125 266.195312 C 524.125 286.570312 492.007812 313.027344 439.859375 330.320312 Z M 418.222656 373.222656 C 423.492188 399.867188 424.246094 423.960938 420.753906 442.796875 C 417.617188 459.722656 411.304688 471.007812 403.503906 475.527344 C 386.898438 485.144531 351.394531 472.644531 313.101562 439.671875 C 308.574219 435.765625 304.15625 431.734375 299.855469 427.582031 C 314.699219 411.335938 329.535156 392.453125 344.015625 371.476562 C 369.484375 369.214844 393.546875 365.515625 415.367188 360.46875 C 416.417969 364.695312 417.371094 368.949219 418.222656 373.222656 Z M 199.398438 473.863281 C 183.179688 479.597656 170.257812 479.761719 162.449219 475.253906 C 145.832031 465.664062 138.921875 428.640625 148.347656 378.980469 C 149.464844 373.113281 150.75 367.277344 152.191406 361.476562 C 173.773438 366.253906 197.660156 369.691406 223.1875 371.761719 C 237.765625 392.285156 253.03125 411.152344 268.414062 427.671875 C 265.144531 430.835938 261.796875 433.921875 258.378906 436.921875 C 237.9375 454.800781 217.453125 467.484375 199.398438 473.863281 Z M 123.40625 330.195312 C 97.71875 321.40625 76.503906 309.988281 61.960938 297.527344 C 48.890625 286.332031 42.296875 275.214844 42.296875 266.195312 C 42.296875 246.996094 70.894531 222.511719 118.597656 205.871094 C 124.386719 203.855469 130.445312 201.949219 136.734375 200.160156 C 143.328125 221.617188 151.972656 244.054688 162.410156 266.742188 C 151.839844 289.765625 143.066406 312.558594 136.410156 334.269531 C 132.042969 333.015625 127.707031 331.660156 123.40625 330.195312 Z M 148.882812 156.679688 C 138.980469 106.046875 145.554688 67.855469 162.105469 58.269531 C 179.726562 48.058594 218.703125 62.617188 259.78125 99.117188 C 262.460938 101.5 265.09375 103.933594 267.6875 106.414062 C 252.378906 122.863281 237.253906 141.585938 222.804688 161.992188 C 198.027344 164.289062 174.308594 167.980469 152.503906 172.921875 C 151.160156 167.539062 149.953125 162.125 148.882812 156.683594 Z M 376.136719 212.832031 C 370.988281 203.929688 365.644531 195.140625 360.117188 186.46875 C 376.925781 188.59375 393.03125 191.417969 408.15625 194.867188 C 403.613281 209.433594 397.957031 224.65625 391.292969 240.265625 C 386.425781 231.019531 381.371094 221.875 376.136719 212.832031 Z M 283.460938 122.511719 C 293.84375 133.765625 304.238281 146.328125 314.464844 159.960938 C 293.722656 158.980469 272.941406 158.976562 252.199219 159.949219 C 262.433594 146.441406 272.917969 133.894531 283.460938 122.511719 Z M 190.191406 212.988281 C 185.023438 221.957031 180.066406 231.046875 175.320312 240.246094 C 168.765625 224.691406 163.160156 209.398438 158.582031 194.628906 C 173.613281 191.265625 189.640625 188.515625 206.34375 186.425781 C 200.753906 195.152344 195.367188 204.007812 190.191406 212.984375 Z M 206.824219 347.5625 C 189.566406 345.636719 173.296875 343.027344 158.269531 339.753906 C 162.921875 324.71875 168.652344 309.101562 175.347656 293.214844 C 180.109375 302.421875 185.089844 311.515625 190.28125 320.492188 C 195.621094 329.714844 201.148438 338.753906 206.824219 347.5625 Z M 284.085938 411.460938 C 273.414062 399.949219 262.777344 387.207031 252.386719 373.503906 C 262.472656 373.898438 272.757812 374.101562 283.210938 374.101562 C 293.949219 374.101562 304.5625 373.859375 315.011719 373.394531 C 304.753906 387.34375 294.394531 400.105469 284.085938 411.460938 Z M 391.507812 292.402344 C 398.546875 308.464844 404.484375 324 409.195312 338.777344 C 393.921875 342.265625 377.429688 345.074219 360.050781 347.160156 C 365.621094 338.328125 371.011719 329.382812 376.226562 320.335938 C 381.527344 311.140625 386.621094 301.824219 391.507812 292.402344 Z M 356.730469 309.085938 C 348.75 322.957031 340.320312 336.566406 331.457031 349.886719 C 315.398438 351.027344 299.308594 351.59375 283.210938 351.582031 C 266.8125 351.582031 250.867188 351.074219 235.511719 350.074219 C 226.414062 336.78125 217.824219 323.152344 209.757812 309.207031 L 209.761719 309.207031 C 201.734375 295.339844 194.234375 281.171875 187.28125 266.730469 C 194.214844 252.289062 201.691406 238.113281 209.691406 224.234375 C 217.6875 210.351562 226.210938 196.777344 235.234375 183.542969 C 250.902344 182.355469 266.96875 181.738281 283.207031 181.738281 L 283.210938 181.738281 C 299.519531 181.738281 315.609375 182.363281 331.273438 183.558594 C 340.207031 196.773438 348.675781 210.300781 356.65625 224.113281 C 364.683594 237.964844 372.257812 252.070312 379.367188 266.410156 C 372.332031 280.902344 364.78125 295.132812 356.730469 309.085938 Z M 403.160156 57.597656 C 420.800781 67.777344 427.660156 108.835938 416.578125 162.675781 C 415.867188 166.109375 415.074219 169.609375 414.210938 173.15625 C 392.351562 168.105469 368.617188 164.351562 343.765625 162.019531 C 329.289062 141.390625 314.289062 122.636719 299.230469 106.402344 C 303.175781 102.597656 307.21875 98.886719 311.347656 95.28125 C 350.242188 61.414062 386.597656 48.042969 403.160156 57.597656 Z M 283.210938 219.117188 C 309.191406 219.117188 330.253906 240.195312 330.253906 266.195312 C 330.253906 292.191406 309.191406 313.269531 283.210938 313.269531 C 257.226562 313.269531 236.164062 292.191406 236.164062 266.195312 C 236.164062 240.195312 257.226562 219.117188 283.210938 219.117188 Z M 283.210938 219.117188 " fill-opacity="1" fill-rule="nonzero"/></g></svg>