<svg xmlns="http://www.w3.org/2000/svg" xmlns:xlink="http://www.w3.org/1999/xlink" width="755" zoomAndPan="magnify" viewBox="0 0 567 567.000005" height="755" preserveAspectRatio="xMidYMid meet" version="1.0"><defs><clipPath id="a3067a74ac"><path d="M 58 26 L 509 26 L 509 541.589844 L 58 541.589844 Z M 58 26 " clip-rule="nonzero"/></clipPath><clipPath id="198ecea5d4"><path d="M 104.105469 168 L 462.722656 168 L 462.722656 397 L 104.105469 397 Z M 104.105469 168 " clip-rule="nonzero"/></clipPath></defs><g clip-path="url(#a3067a74ac)"><path fill="#4caf50" d="M 58.03125 167.371094 L 58.03125 400.617188 C 58.03125 409.292969 62.648438 417.363281 70.140625 421.699219 L 271.355469 538.390625 C 278.867188 542.746094 288.101562 542.746094 295.613281 538.390625 L 496.742188 421.742188 C 504.257812 417.34375 508.851562 409.335938 508.871094 400.660156 L 508.871094 167.371094 C 508.871094 158.699219 504.234375 150.625 496.722656 146.246094 L 295.636719 29.664062 C 288.121094 25.304688 278.847656 25.304688 271.375 29.664062 L 271.332031 29.6875 L 70.117188 146.265625 C 62.605469 150.644531 58.007812 158.699219 58.03125 167.371094 Z M 58.03125 167.371094 " fill-opacity="1" fill-rule="nonzero"/></g><g clip-path="url(#198ecea5d4)"><path fill="#141b09" d="M 350.585938 168.984375 C 348.769531 168.984375 347.105469 170.441406 347.105469 172.464844 L 347.105469 236.0625 L 332.683594 227.65625 C 331.78125 227.121094 330.765625 226.863281 329.746094 226.863281 C 328.730469 226.863281 327.710938 227.121094 326.808594 227.65625 L 292.164062 247.859375 C 290.359375 248.902344 289.246094 250.828125 289.246094 252.898438 L 289.246094 293.355469 C 289.246094 295.4375 290.359375 297.351562 292.164062 298.394531 L 326.808594 318.597656 C 327.710938 319.128906 328.730469 319.390625 329.746094 319.390625 C 330.765625 319.390625 331.78125 319.128906 332.683594 318.597656 L 367.332031 298.394531 C 369.136719 297.351562 370.246094 295.425781 370.246094 293.355469 L 370.246094 183.222656 C 370.246094 181.164062 369.148438 179.269531 367.375 178.226562 L 352.300781 169.460938 C 351.734375 169.136719 351.164062 168.984375 350.585938 168.984375 Z M 237.175781 226.863281 C 236.160156 226.863281 235.148438 227.128906 234.238281 227.65625 L 199.59375 247.859375 C 197.785156 248.902344 196.675781 250.828125 196.675781 252.898438 L 196.675781 293.355469 C 196.675781 295.4375 197.785156 297.351562 199.59375 298.394531 L 234.238281 318.597656 C 236.054688 319.652344 238.296875 319.652344 240.113281 318.597656 L 274.761719 298.394531 C 276.566406 297.351562 277.675781 295.425781 277.675781 293.355469 L 277.675781 252.898438 C 277.675781 250.816406 276.566406 248.902344 274.761719 247.859375 L 240.113281 227.65625 C 239.207031 227.128906 238.191406 226.863281 237.175781 226.863281 Z M 422.316406 226.863281 C 421.300781 226.863281 420.28125 227.121094 419.378906 227.65625 L 384.734375 247.859375 C 382.929688 248.902344 381.816406 250.828125 381.816406 252.898438 L 381.816406 293.355469 C 381.816406 295.4375 382.929688 297.351562 384.734375 298.394531 L 418.339844 318.710938 C 420.144531 319.808594 422.410156 319.820312 424.238281 318.757812 L 440.757812 309.152344 C 442.472656 308.167969 442.484375 305.683594 440.757812 304.675781 L 404.960938 283.589844 L 404.960938 262.820312 L 422.316406 252.71875 L 439.675781 262.820312 L 439.675781 277.285156 C 439.675781 279.21875 441.300781 279.515625 442.386719 278.867188 C 446.761719 276.296875 459.945312 268.652344 459.945312 268.652344 C 461.71875 267.621094 462.816406 265.714844 462.816406 263.65625 L 462.816406 252.898438 C 462.816406 250.816406 461.707031 248.902344 459.902344 247.859375 L 425.253906 227.65625 C 424.339844 227.121094 423.335938 226.863281 422.316406 226.863281 Z M 144.605469 226.886719 C 143.585938 226.886719 142.570312 227.144531 141.667969 227.675781 L 107.023438 247.859375 C 105.214844 248.914062 104.105469 250.839844 104.105469 252.921875 L 104.105469 304.5625 C 104.105469 307.085938 106.835938 308.648438 109.011719 307.386719 L 124.378906 298.4375 C 126.148438 297.398438 127.25 295.503906 127.25 293.445312 L 127.25 262.867188 L 144.605469 252.742188 L 161.960938 262.867188 L 161.960938 293.445312 C 161.960938 295.503906 163.0625 297.398438 164.832031 298.4375 L 180.203125 307.386719 C 182.375 308.660156 185.105469 307.085938 185.105469 304.5625 L 185.105469 252.921875 C 185.105469 250.839844 183.996094 248.914062 182.191406 247.859375 L 147.542969 227.675781 C 146.640625 227.144531 145.625 226.886719 144.605469 226.886719 Z M 329.746094 252.71875 L 347.105469 262.84375 L 347.105469 283.410156 L 329.746094 293.535156 L 312.390625 283.410156 L 312.390625 262.84375 Z M 422.316406 261.601562 L 412.394531 267.386719 L 412.394531 278.933594 L 422.316406 284.699219 L 432.238281 278.933594 L 432.238281 267.386719 Z M 282.375 307.816406 C 281.1875 307.816406 279.984375 308.109375 278.941406 308.699219 L 246.398438 327.503906 C 244.257812 328.683594 242.960938 331.003906 242.960938 333.425781 L 242.960938 370.984375 C 242.960938 373.402344 244.316406 375.679688 246.398438 376.90625 L 254.960938 381.789062 C 259.070312 383.8125 260.582031 383.824219 262.445312 383.824219 C 268.578125 383.824219 272.070312 380.15625 272.070312 373.675781 L 272.070312 336.566406 C 272.070312 336 271.632812 335.59375 271.121094 335.59375 L 267.007812 335.59375 C 266.441406 335.59375 266.035156 336.054688 266.035156 336.566406 L 266.035156 373.675781 C 266.035156 376.488281 263.066406 379.371094 258.21875 376.953125 L 249.3125 371.820312 C 249.023438 371.648438 248.816406 371.296875 248.816406 370.960938 L 248.816406 333.402344 C 248.816406 333.066406 248.976562 332.671875 249.3125 332.496094 L 281.855469 313.738281 C 282.203125 313.566406 282.597656 313.566406 282.875 313.738281 L 315.441406 332.496094 C 315.777344 332.671875 315.9375 333.007812 315.9375 333.402344 L 315.9375 370.960938 C 315.9375 371.355469 315.71875 371.691406 315.441406 371.867188 L 282.875 390.691406 C 282.585938 390.867188 282.136719 390.867188 281.855469 390.691406 L 273.539062 385.742188 C 273.320312 385.628906 272.96875 385.558594 272.75 385.675781 C 270.445312 387.03125 269.984375 387.207031 267.84375 387.9375 C 267.277344 388.109375 266.507812 388.457031 268.140625 389.359375 L 278.941406 395.777344 C 280.019531 396.34375 281.195312 396.683594 282.375 396.683594 C 283.613281 396.683594 284.816406 396.347656 285.765625 395.734375 L 318.3125 376.90625 C 320.453125 375.726562 321.746094 373.402344 321.746094 370.984375 L 321.746094 333.425781 C 321.746094 331.003906 320.394531 328.742188 318.3125 327.503906 L 285.765625 308.699219 C 284.753906 308.109375 283.566406 307.816406 282.375 307.816406 Z M 333.136719 325.152344 C 329.816406 325.152344 326.898438 327.835938 326.898438 331.390625 C 326.898438 334.828125 329.699219 337.648438 333.136719 337.648438 C 336.574219 337.648438 339.375 334.828125 339.375 331.390625 C 339.375 327.835938 336.515625 325.09375 333.136719 325.152344 Z M 333.070312 326.148438 C 336.007812 326.148438 338.378906 328.460938 338.378906 331.390625 C 338.378906 334.257812 335.996094 336.632812 333.070312 336.699219 C 330.1875 336.699219 327.847656 334.316406 327.847656 331.390625 C 327.847656 328.460938 330.199219 326.148438 333.070312 326.148438 Z M 330.785156 327.839844 L 330.785156 334.871094 L 332.121094 334.871094 L 332.121094 332.066406 L 333.363281 332.066406 C 333.871094 332.066406 333.992188 332.285156 334.109375 332.679688 C 334.109375 332.734375 334.320312 334.558594 334.378906 334.894531 L 335.828125 334.894531 C 335.664062 334.558594 335.546875 333.59375 335.488281 333.015625 C 335.324219 332.113281 335.273438 331.492188 334.3125 331.433594 C 334.820312 331.261719 335.667969 330.992188 335.667969 329.695312 C 335.667969 327.832031 334.050781 327.839844 333.203125 327.839844 Z M 332.121094 328.972656 L 333.25 328.972656 C 333.597656 328.972656 334.265625 328.960938 334.265625 329.921875 C 334.265625 330.3125 334.097656 330.949219 333.183594 330.9375 L 332.121094 330.9375 Z M 291.101562 334.710938 C 281.808594 334.710938 276.296875 338.671875 276.296875 345.199219 C 276.296875 352.351562 281.816406 354.261719 290.714844 355.164062 C 301.363281 356.230469 302.199219 357.761719 302.199219 359.84375 C 302.199219 363.5 299.261719 365.019531 292.390625 365.019531 C 283.769531 365.019531 281.871094 362.882812 281.246094 358.601562 C 281.1875 358.148438 280.785156 357.808594 280.273438 357.808594 L 276.050781 357.808594 C 275.539062 357.808594 275.101562 358.214844 275.101562 358.78125 C 275.101562 364.242188 278.078125 370.78125 292.320312 370.78125 C 302.769531 370.769531 308.683594 366.722656 308.683594 359.617188 C 308.683594 352.582031 303.945312 350.710938 293.925781 349.355469 C 283.789062 348.003906 282.785156 347.320312 282.785156 344.949219 C 282.785156 342.984375 283.613281 340.40625 291.101562 340.40625 C 297.800781 340.40625 300.296875 341.871094 301.316406 346.375 C 301.429688 346.824219 301.746094 347.097656 302.199219 347.097656 L 306.421875 347.097656 C 306.703125 347.097656 306.941406 346.988281 307.101562 346.824219 C 307.273438 346.605469 307.386719 346.378906 307.328125 346.101562 C 306.65625 338.328125 301.527344 334.710938 291.101562 334.710938 Z M 291.101562 334.710938 " fill-opacity="1" fill-rule="nonzero"/></g></svg>