<svg xmlns="http://www.w3.org/2000/svg" xmlns:xlink="http://www.w3.org/1999/xlink" width="755" zoomAndPan="magnify" viewBox="0 0 567 567.000005" height="755" preserveAspectRatio="xMidYMid meet" version="1.0"><defs><clipPath id="79df141298"><path d="M 24.753906 24.253906 L 542.089844 24.253906 L 542.089844 541.589844 L 24.753906 541.589844 Z M 24.753906 24.253906 " clip-rule="nonzero"/></clipPath></defs><g clip-path="url(#79df141298)"><path fill="#f03c2e" d="M 532.324219 259.886719 L 306.460938 34.019531 C 305.6875 33.246094 304.882812 32.515625 304.039062 31.824219 C 303.195312 31.128906 302.320312 30.480469 301.414062 29.875 C 300.503906 29.269531 299.570312 28.707031 298.609375 28.195312 C 297.644531 27.679688 296.660156 27.214844 295.652344 26.796875 C 294.644531 26.378906 293.621094 26.011719 292.574219 25.695312 C 291.53125 25.375 290.472656 25.113281 289.402344 24.898438 C 288.332031 24.6875 287.257812 24.527344 286.171875 24.417969 C 285.085938 24.3125 283.996094 24.257812 282.90625 24.257812 C 281.8125 24.257812 280.726562 24.3125 279.640625 24.417969 C 278.554688 24.527344 277.476562 24.6875 276.40625 24.898438 C 275.335938 25.113281 274.277344 25.375 273.234375 25.695312 C 272.191406 26.011719 271.164062 26.378906 270.15625 26.796875 C 269.148438 27.214844 268.164062 27.679688 267.199219 28.195312 C 266.238281 28.707031 265.304688 29.269531 264.398438 29.875 C 263.488281 30.480469 262.613281 31.128906 261.773438 31.824219 C 260.929688 32.515625 260.121094 33.246094 259.351562 34.019531 L 212.464844 80.902344 L 271.960938 140.394531 C 285.796875 135.546875 301.640625 138.859375 312.667969 149.886719 C 313.972656 151.195312 315.183594 152.585938 316.292969 154.0625 C 317.402344 155.542969 318.40625 157.089844 319.300781 158.707031 C 320.195312 160.324219 320.972656 161.996094 321.632812 163.722656 C 322.292969 165.449219 322.828125 167.210938 323.242188 169.011719 C 323.65625 170.816406 323.941406 172.636719 324.097656 174.476562 C 324.257812 176.320312 324.285156 178.164062 324.1875 180.007812 C 324.085938 181.855469 323.859375 183.683594 323.503906 185.496094 C 323.144531 187.3125 322.664062 189.089844 322.0625 190.835938 L 379.40625 248.179688 C 393.277344 243.394531 409.28125 246.484375 420.355469 257.589844 C 421.273438 258.507812 422.144531 259.46875 422.96875 260.472656 C 423.792969 261.476562 424.566406 262.519531 425.289062 263.597656 C 426.011719 264.679688 426.679688 265.789062 427.292969 266.9375 C 427.902344 268.082031 428.460938 269.253906 428.957031 270.453125 C 429.453125 271.65625 429.890625 272.875 430.269531 274.121094 C 430.644531 275.363281 430.960938 276.621094 431.214844 277.894531 C 431.46875 279.167969 431.660156 280.453125 431.785156 281.746094 C 431.914062 283.039062 431.976562 284.332031 431.976562 285.632812 C 431.976562 286.929688 431.914062 288.226562 431.789062 289.519531 C 431.660156 290.8125 431.46875 292.097656 431.214844 293.371094 C 430.964844 294.644531 430.648438 295.902344 430.269531 297.144531 C 429.894531 298.390625 429.457031 299.609375 428.960938 300.8125 C 428.460938 302.011719 427.90625 303.183594 427.296875 304.328125 C 426.683594 305.476562 426.015625 306.589844 425.292969 307.667969 C 424.570312 308.746094 423.800781 309.789062 422.976562 310.792969 C 422.152344 311.796875 421.277344 312.757812 420.359375 313.679688 C 419.441406 314.597656 418.480469 315.46875 417.476562 316.292969 C 416.472656 317.113281 415.429688 317.886719 414.347656 318.609375 C 413.269531 319.332031 412.15625 319.996094 411.011719 320.609375 C 409.863281 321.222656 408.691406 321.777344 407.492188 322.273438 C 406.289062 322.769531 405.070312 323.207031 403.824219 323.582031 C 402.582031 323.960938 401.324219 324.273438 400.050781 324.527344 C 398.777344 324.78125 397.492188 324.972656 396.199219 325.097656 C 394.90625 325.222656 393.609375 325.289062 392.3125 325.289062 C 391.011719 325.285156 389.71875 325.222656 388.425781 325.09375 C 387.132812 324.96875 385.847656 324.777344 384.574219 324.523438 C 383.300781 324.269531 382.042969 323.953125 380.800781 323.574219 C 379.554688 323.195312 378.335938 322.757812 377.136719 322.261719 C 375.933594 321.761719 374.761719 321.207031 373.617188 320.59375 C 372.472656 319.980469 371.359375 319.316406 370.28125 318.59375 C 369.199219 317.871094 368.160156 317.097656 367.15625 316.273438 C 366.152344 315.445312 365.191406 314.574219 364.273438 313.65625 C 352.632812 302.015625 349.753906 284.878906 355.640625 270.539062 L 302.160156 217.058594 L 302.160156 357.792969 C 306.066406 359.726562 309.570312 362.226562 312.667969 365.292969 C 313.585938 366.210938 314.457031 367.171875 315.28125 368.175781 C 316.105469 369.179688 316.875 370.222656 317.597656 371.300781 C 318.320312 372.378906 318.984375 373.492188 319.597656 374.636719 C 320.210938 375.78125 320.765625 376.953125 321.261719 378.15625 C 321.757812 379.355469 322.195312 380.574219 322.574219 381.816406 C 322.949219 383.058594 323.265625 384.316406 323.519531 385.589844 C 323.769531 386.863281 323.960938 388.148438 324.089844 389.441406 C 324.214844 390.730469 324.28125 392.027344 324.28125 393.324219 C 324.28125 394.625 324.214844 395.917969 324.089844 397.210938 C 323.960938 398.503906 323.769531 399.785156 323.519531 401.058594 C 323.265625 402.332031 322.949219 403.59375 322.574219 404.835938 C 322.195312 406.078125 321.757812 407.296875 321.261719 408.496094 C 320.765625 409.695312 320.210938 410.871094 319.597656 412.015625 C 318.984375 413.160156 318.320312 414.273438 317.597656 415.351562 C 316.875 416.429688 316.105469 417.472656 315.28125 418.476562 C 314.457031 419.480469 313.585938 420.441406 312.667969 421.359375 C 311.75 422.277344 310.789062 423.148438 309.785156 423.972656 C 308.78125 424.796875 307.738281 425.566406 306.660156 426.289062 C 305.582031 427.011719 304.46875 427.675781 303.324219 428.289062 C 302.179688 428.902344 301.003906 429.457031 299.804688 429.953125 C 298.605469 430.449219 297.386719 430.886719 296.144531 431.265625 C 294.902344 431.640625 293.640625 431.957031 292.367188 432.210938 C 291.09375 432.460938 289.8125 432.652344 288.519531 432.78125 C 287.226562 432.90625 285.933594 432.972656 284.632812 432.972656 C 283.335938 432.972656 282.039062 432.90625 280.75 432.78125 C 279.457031 432.652344 278.171875 432.460938 276.898438 432.210938 C 275.625 431.957031 274.367188 431.640625 273.125 431.265625 C 271.882812 430.886719 270.664062 430.449219 269.464844 429.953125 C 268.261719 429.457031 267.089844 428.902344 265.945312 428.289062 C 264.800781 427.675781 263.6875 427.011719 262.609375 426.289062 C 261.53125 425.566406 260.488281 424.796875 259.484375 423.972656 C 258.480469 423.148438 257.519531 422.277344 256.601562 421.359375 C 255.683594 420.441406 254.808594 419.480469 253.984375 418.476562 C 253.160156 417.476562 252.386719 416.433594 251.664062 415.355469 C 250.941406 414.273438 250.273438 413.164062 249.664062 412.015625 C 249.050781 410.871094 248.492188 409.699219 247.996094 408.5 C 247.5 407.300781 247.0625 406.078125 246.683594 404.835938 C 246.304688 403.59375 245.992188 402.335938 245.738281 401.0625 C 245.484375 399.789062 245.292969 398.503906 245.164062 397.214844 C 245.039062 395.921875 244.972656 394.625 244.972656 393.324219 C 244.972656 392.027344 245.039062 390.730469 245.164062 389.4375 C 245.292969 388.148438 245.484375 386.863281 245.738281 385.589844 C 245.992188 384.316406 246.304688 383.058594 246.683594 381.816406 C 247.0625 380.574219 247.5 379.351562 247.996094 378.152344 C 248.492188 376.953125 249.050781 375.78125 249.664062 374.632812 C 250.273438 373.488281 250.941406 372.378906 251.664062 371.296875 C 252.386719 370.21875 253.160156 369.175781 253.984375 368.175781 C 254.808594 367.171875 255.683594 366.210938 256.601562 365.292969 C 260.433594 361.476562 264.683594 358.582031 269.582031 356.644531 L 269.582031 214.601562 C 264.863281 212.660156 260.433594 209.800781 256.601562 205.953125 C 255.21875 204.570312 253.941406 203.09375 252.777344 201.523438 C 251.613281 199.953125 250.570312 198.304688 249.648438 196.578125 C 248.726562 194.851562 247.9375 193.066406 247.28125 191.222656 C 246.625 189.382812 246.109375 187.5 245.730469 185.582031 C 245.351562 183.664062 245.117188 181.726562 245.027344 179.773438 C 244.933594 177.816406 244.988281 175.867188 245.1875 173.921875 C 245.382812 171.976562 245.722656 170.054688 246.207031 168.160156 C 246.6875 166.261719 247.308594 164.414062 248.066406 162.609375 L 189.378906 103.957031 L 34.5 258.671875 C 33.730469 259.445312 32.996094 260.25 32.304688 261.09375 C 31.609375 261.9375 30.960938 262.8125 30.355469 263.722656 C 29.746094 264.628906 29.1875 265.5625 28.671875 266.527344 C 28.15625 267.488281 27.691406 268.472656 27.273438 269.480469 C 26.855469 270.492188 26.488281 271.515625 26.167969 272.5625 C 25.851562 273.605469 25.585938 274.664062 25.375 275.734375 C 25.160156 276.804688 25 277.882812 24.894531 278.96875 C 24.785156 280.054688 24.734375 281.144531 24.734375 282.234375 C 24.734375 283.328125 24.785156 284.417969 24.894531 285.503906 C 25 286.589844 25.160156 287.667969 25.375 288.738281 C 25.585938 289.808594 25.851562 290.867188 26.167969 291.910156 C 26.488281 292.953125 26.855469 293.980469 27.273438 294.988281 C 27.691406 296 28.15625 296.984375 28.671875 297.945312 C 29.1875 298.910156 29.746094 299.84375 30.355469 300.75 C 30.960938 301.65625 31.609375 302.535156 32.304688 303.375 C 32.996094 304.21875 33.730469 305.027344 34.5 305.800781 L 260.382812 531.648438 C 261.15625 532.421875 261.964844 533.152344 262.804688 533.84375 C 263.648438 534.539062 264.523438 535.1875 265.433594 535.792969 C 266.339844 536.398438 267.273438 536.960938 268.234375 537.472656 C 269.199219 537.988281 270.183594 538.453125 271.191406 538.871094 C 272.199219 539.289062 273.226562 539.65625 274.269531 539.972656 C 275.3125 540.292969 276.371094 540.554688 277.441406 540.769531 C 278.511719 540.980469 279.589844 541.140625 280.675781 541.25 C 281.761719 541.355469 282.847656 541.410156 283.9375 541.410156 C 285.03125 541.410156 286.117188 541.355469 287.203125 541.25 C 288.289062 541.140625 289.367188 540.980469 290.4375 540.769531 C 291.507812 540.554688 292.566406 540.292969 293.609375 539.972656 C 294.652344 539.65625 295.679688 539.289062 296.6875 538.871094 C 297.695312 538.453125 298.679688 537.988281 299.644531 537.472656 C 300.605469 536.960938 301.539062 536.398438 302.445312 535.792969 C 303.355469 535.1875 304.230469 534.539062 305.074219 533.84375 C 305.914062 533.152344 306.722656 532.421875 307.496094 531.648438 L 532.324219 307.171875 C 533.097656 306.402344 533.832031 305.59375 534.523438 304.75 C 535.21875 303.90625 535.867188 303.03125 536.472656 302.125 C 537.082031 301.21875 537.640625 300.28125 538.15625 299.320312 C 538.671875 298.359375 539.136719 297.371094 539.554688 296.363281 C 539.972656 295.355469 540.339844 294.328125 540.660156 293.285156 C 540.976562 292.238281 541.242188 291.183594 541.453125 290.113281 C 541.667969 289.042969 541.828125 287.964844 541.933594 286.875 C 542.039062 285.789062 542.09375 284.703125 542.09375 283.609375 C 542.09375 282.519531 542.039062 281.429688 541.933594 280.34375 C 541.828125 279.257812 541.667969 278.179688 541.453125 277.109375 C 541.242188 276.039062 540.976562 274.980469 540.660156 273.933594 C 540.339844 272.890625 539.972656 271.863281 539.554688 270.855469 C 539.136719 269.847656 538.671875 268.863281 538.15625 267.898438 C 537.640625 266.9375 537.082031 266.003906 536.472656 265.09375 C 535.867188 264.1875 535.21875 263.3125 534.523438 262.46875 C 533.832031 261.625 533.097656 260.816406 532.324219 260.046875 " fill-opacity="1" fill-rule="nonzero"/></g></svg>